<svg version="1.1" id="Layer_1" xmlns="http://www.w3.org/2000/svg" xmlns:xlink="http://www.w3.org/1999/xlink" x="0px" y="0px"
	 width="100%" viewBox="0 0 1024 1024" enable-background="new 0 0 1024 1024" xml:space="preserve">
<path fill="#0B0B0B" opacity="1.000000" stroke="none" 
	d="
M675.000000,1025.000000 
	C450.000000,1025.000000 225.500000,1025.000000 1.000000,1025.000000 
	C1.000000,683.666687 1.000000,342.333344 1.000000,1.000000 
	C342.333344,1.000000 683.666687,1.000000 1025.000000,1.000000 
	C1025.000000,342.333344 1025.000000,683.666687 1025.000000,1025.000000 
	C908.500000,1025.000000 792.000000,1025.000000 675.000000,1025.000000 
M466.103180,247.321686 
	C473.755219,236.167419 485.453308,230.096695 496.225220,222.859177 
	C510.648865,239.657150 526.873901,253.831375 545.056519,265.773682 
	C577.918274,287.357269 614.039490,300.173065 652.814636,305.871948 
	C655.634644,306.286407 657.603271,305.667633 659.641602,303.276306 
	C682.852844,276.045502 706.223694,248.950775 729.559692,221.826340 
	C735.046692,215.448669 740.562805,209.096024 746.519775,202.206436 
	C745.185486,202.206436 744.583984,202.132950 744.005493,202.217209 
	C730.134644,204.237549 716.403076,202.932373 702.975037,199.505417 
	C650.829834,186.197464 608.748962,156.665787 572.803223,117.603058 
	C564.076599,108.119682 556.135437,97.913528 548.251099,88.536835 
	C487.651123,164.711044 412.855164,219.971329 316.985901,244.335220 
	C316.985901,245.726105 316.985901,247.052841 316.985870,248.379578 
	C316.984314,315.705566 317.001434,383.031525 316.976166,450.357513 
	C316.948486,524.015930 316.850220,597.674377 316.852203,671.332825 
	C316.852753,691.841797 313.666504,711.365540 300.169800,727.822693 
	C295.671661,733.307495 290.857452,738.533081 285.960876,744.136841 
	C335.922577,754.068054 381.282806,774.168945 422.420959,803.846741 
	C463.503479,833.484375 500.450775,867.171814 526.478577,910.319946 
	C577.200256,836.469177 641.188110,774.869812 707.808777,715.687988 
	C698.518188,705.993103 689.245361,696.316833 679.851013,686.513672 
	C657.464478,706.553711 635.310486,726.385498 613.149170,746.223816 
	C590.478943,728.158264 565.808350,713.989502 540.405701,701.106384 
	C522.472839,692.011597 504.144592,683.696350 485.777161,674.379395 
	C481.884216,672.294739 478.159698,669.758423 474.059540,668.229370 
	C467.628296,665.831055 466.937866,665.319946 466.937714,658.288147 
	C466.935150,525.354248 466.940460,392.420380 466.892670,259.486511 
	C466.891296,255.659195 466.326843,251.832062 466.103180,247.321686 
z"/>
<path fill="#FAFAFA" opacity="1.000000" stroke="none" 
	d="
M485.992889,675.033081 
	C504.144592,683.696350 522.472839,692.011597 540.405701,701.106384 
	C565.808350,713.989502 590.478943,728.158264 613.149170,746.223816 
	C635.310486,726.385498 657.464478,706.553711 679.851013,686.513672 
	C689.245361,696.316833 698.518188,705.993103 707.808777,715.687988 
	C641.188110,774.869812 577.200256,836.469177 526.478577,910.319946 
	C500.450775,867.171814 463.503479,833.484375 422.420959,803.846741 
	C381.282806,774.168945 335.922577,754.068054 285.960876,744.136841 
	C290.857452,738.533081 295.671661,733.307495 300.169800,727.822693 
	C313.666504,711.365540 316.852753,691.841797 316.852203,671.332825 
	C316.850220,597.674377 316.948486,524.015930 316.976166,450.357513 
	C317.001434,383.031525 316.984314,315.705566 316.985870,248.379578 
	C316.985901,247.052841 316.985901,245.726105 316.985901,244.335220 
	C412.855164,219.971329 487.651123,164.711044 548.251099,88.536835 
	C556.135437,97.913528 564.076599,108.119682 572.803223,117.603058 
	C608.748962,156.665787 650.829834,186.197464 702.975037,199.505417 
	C716.403076,202.932373 730.134644,204.237549 744.005493,202.217209 
	C744.583984,202.132950 745.185486,202.206436 746.519775,202.206436 
	C740.562805,209.096024 735.046692,215.448669 729.559692,221.826340 
	C706.223694,248.950775 682.852844,276.045502 659.641602,303.276306 
	C657.603271,305.667633 655.634644,306.286407 652.814636,305.871948 
	C614.039490,300.173065 577.918274,287.357269 545.056519,265.773682 
	C526.873901,253.831375 510.648865,239.657150 496.225220,222.859177 
	C485.453308,230.096695 473.755219,236.167419 465.829468,247.966125 
	C465.074341,252.371307 464.175140,256.131744 464.172607,259.892792 
	C464.110046,352.821930 464.144592,445.751068 464.156799,538.680237 
	C464.162201,579.648987 464.134583,620.617798 464.235535,661.586304 
	C464.239594,663.242249 464.955994,665.832947 466.113525,666.394409 
	C472.608734,669.544556 479.341339,672.205261 485.992889,675.033081 
z"/>
<path fill="#2B2B2C" opacity="1.000000" stroke="none" 
	d="
M485.885010,674.706238 
	C479.341339,672.205261 472.608734,669.544556 466.113525,666.394409 
	C464.955994,665.832947 464.239594,663.242249 464.235535,661.586304 
	C464.134583,620.617798 464.162201,579.648987 464.156799,538.680237 
	C464.144592,445.751068 464.110046,352.821930 464.172607,259.892792 
	C464.175140,256.131744 465.074341,252.371307 465.790344,248.307709 
	C466.326843,251.832062 466.891296,255.659195 466.892670,259.486511 
	C466.940460,392.420380 466.935150,525.354248 466.937714,658.288147 
	C466.937866,665.319946 467.628296,665.831055 474.059540,668.229370 
	C478.159698,669.758423 481.884216,672.294739 485.885010,674.706238 
z"/>
</svg>